<?xml version="1.0" encoding="utf-8"?>
<!-- Generator: Adobe Illustrator 24.0.1, SVG Export Plug-In . SVG Version: 6.00 Build 0)  -->
<svg version="1.1" id="Capa_1" xmlns="http://www.w3.org/2000/svg" xmlns:xlink="http://www.w3.org/1999/xlink" x="0px" y="0px"
	 viewBox="0 0 3840 2160" style="enable-background:new 0 0 3840 2160;" xml:space="preserve">
<style type="text/css">
	.st0{fill:#73C8C6;}
	.st1{fill:#162839;}
</style>
<g>
	<path class="st0" d="M2026.2,1823.7c-6.1-3.7-11.6-7.3-17.3-10.6c-41.4-24.4-82.9-48.8-124.3-73.1c-25.4-14.9-50.8-29.7-76.2-44.6
		c-1.1-0.6-2.2-1.1-3.8-1.1c34.5,43.1,69,86.3,103.5,129.4c-0.2,0.2-0.3,0.5-0.5,0.7c-232.5-107.1-465-214.1-697.8-321.3
		c-0.4-6.9-0.7-13.8-1.1-20.8c-1-18.8-2-37.7-3-56.5c-0.4-8.1-0.6-16.2-1.1-24.2c-0.7-13.3-1.6-26.6-2.3-39.9
		c-0.6-10.3-0.9-20.7-1.4-31c-0.9-18.4-2-36.8-2.9-55.2c-0.4-7.5-0.7-15-1.1-22.5c-0.8-13.9-1.6-27.8-2.3-41.6
		c-0.6-10.5-0.9-21-1.4-31.4c-0.9-18.4-2-36.8-2.9-55.2c-0.4-7.5-0.7-15-1.1-22.5c-0.7-13.4-1.5-26.9-2.2-40.3
		c-0.6-10.6-1-21.2-1.6-31.9c-0.7-13.6-1.5-27.2-2.2-40.8c-0.7-13.3-1.2-26.6-1.9-40c-0.7-13.3-1.6-26.6-2.3-39.9
		c-0.6-10.3-0.9-20.7-1.4-31c-0.9-18.4-2-36.8-3-55.2c-0.4-7.4-0.6-14.7-1.1-22.1c-0.2-2.5,0.7-4.2,2.7-5.7
		c26.9-20.6,53.7-41.2,80.5-61.9c57.7-44.4,115.5-88.8,173.2-133.2c42.6-32.8,85.2-65.6,127.8-98.3c57-43.9,114.1-87.8,171.1-131.7
		c14.1-10.8,28.2-21.6,42.2-32.5c1.9-1.4,3.3-2,5.8-1c40.1,15.2,80.2,30.3,120.3,45.4c5.4,2,10.8,4,16.1,6.2c2.6,1.1,4.7,1,7.2-0.5
		c24.8-14.7,49.8-29.2,74.7-43.8c1.2-0.7,2.4-1.8,3.8-2c1.6-0.3,3.8-0.7,4.9,0.1c5.9,4.2,12.5,7,18.7,10.5
		c8.7,4.8,17.6,9.3,26.4,14.1c7.7,4.3,15.3,9,23,13.3c6.8,3.8,13.7,7.4,20.5,11c4.9,2.6,9.8,5.2,14.6,7.9c4.6,2.6,9,5.5,13.7,8
		c7.2,3.8,14.6,7.3,21.8,11c4.7,2.5,9.1,5.5,13.8,8c6.2,3.3,12.3,6.8,18.6,9.9c6.9,3.3,13.2,7.7,19.9,11.5c3.7,2.1,7.5,4,11.3,6
		c4,2.1,7.9,4.3,11.8,6.5c5.8,3.1,11.6,6.2,17.3,9.4c3.8,2,7.5,4,11.3,6.1c7.4,4,14.8,7.9,22.2,12c7.7,4.2,15.4,8.6,23,12.9
		c7.9,4.4,15.8,9,23.8,13.3c7.6,4.1,15.3,8.1,22.9,12.4c6.2,3.6,12.6,6.8,18.8,10.5c7,4.2,14.9,7,21.8,11.4
		c8.6,5.5,17.9,9.7,26.7,15c7,4.2,14.4,7.6,21.6,11.5c6.7,3.7,13.2,7.6,19.9,11.3c3.9,2.2,7.8,4.2,11.7,6.2
		c3.6,1.9,7.3,3.6,10.9,5.6c4.7,2.6,9.2,5.5,13.9,8.1c5.2,2.9,10.6,5.7,15.8,8.6c6.8,3.8,13.4,8,20.4,11.3c7.6,3.5,14.6,8,22.1,11.7
		c6.7,3.2,12.7,7.9,19.4,11.1c8.6,4,16.4,9.3,25,13.3c6.9,3.3,13.3,7.4,19.9,11.1c4.2,2.3,8.6,4.4,12.8,6.7c3.5,1.9,6.9,4,10.3,5.9
		c6.1,3.4,12.3,6.7,18.5,10c3.5,1.8,5.6,4.1,5.6,8.5c0.3,29.4,0.9,58.7,1.4,88.1c0.2,13.5,0.5,27,0.7,40.4
		c0.6,33.8,1.3,67.5,1.9,101.3c0.3,13.8,0.5,27.5,0.7,41.3c0.6,34,1.3,68.1,1.9,102.2c0.2,13.2,0.4,26.4,0.7,39.6
		c0.6,34.2,1.3,68.4,1.9,102.6c0.3,13.5,0.4,27,0.7,40.4c0.6,34.3,1.3,68.7,1.9,103c0.2,12.8,0.4,25.5,0.7,38.3
		c0.4,16.3,0.8,32.6,1.3,48.9c0.1,2.9-0.8,4.5-3.4,6c-39.1,22.5-78,45.2-117,67.8c-64,37-128.1,74-192.1,111
		c-65.5,37.9-131,75.8-196.5,113.7c-42.9,24.8-85.8,49.6-128.7,74.3C2028.1,1822.8,2027.1,1823.3,2026.2,1823.7z"/>
</g>
<g>
	<path class="st1" d="M1791.3,1730.7c-4.9-2.2-447.9-331.8-454.2-337.7c0.4-8,0.8-16,1.3-24c0.4-8.4,0.9-16.7,1.3-25.1
		c0.3-6.2,0.6-12.4,0.9-18.6c0.6-10.4,1.3-20.8,1.9-31.3c0.4-7.2,0.7-14.3,1-21.5c0.4-8.6,0.9-17.2,1.4-25.8
		c0.3-5.9,0.5-11.9,0.9-17.8c0.6-10.5,1.3-21.1,1.9-31.6c0.4-7,0.7-14.1,1-21.1c0.4-8.6,0.9-17.2,1.4-25.8
		c0.3-5.9,0.5-11.9,0.9-17.8c0.6-10.5,1.3-21.1,1.9-31.6c0.4-7,0.7-14.1,1-21.1c0.4-8.6,0.9-17.2,1.4-25.8
		c0.3-6.1,0.5-12.1,0.9-18.2c0.6-10.4,1.3-20.8,1.9-31.3c0.4-7.2,0.7-14.3,1-21.5c0.4-8.5,0.9-17,1.3-25.5
		c0.3-6.1,0.5-12.1,0.9-18.2c0.6-10.4,1.3-20.8,1.9-31.3c0.4-7.2,0.7-14.3,1-21.5c0.4-8.5,0.9-17,1.3-25.5
		c0.3-6.1,0.6-12.1,0.9-18.2c0.6-10.4,1.3-20.8,1.9-31.3c0.4-7.6,0.7-15.3,1.1-22.9c0-0.6,0.1-1.2,0.2-2.1
		c209.8-124.2,419.8-248.4,629.8-372.7c8.8,4.9,17.6,9.8,26.3,14.6c39.4,21.9,78.7,43.8,118.1,65.8c48.3,26.9,96.6,53.8,144.9,80.6
		c45.1,25.1,90.1,50.2,135.2,75.3c44.3,24.7,88.6,49.4,132.9,74c18.8,10.5,37.6,21,56.5,31.4c2.4,1.3,3.1,2.8,3.1,5.4
		c-0.1,49.4-0.1,98.8-0.1,148.2c0,173.4,0,346.9,0,520.3c0,5.7,1,4.4-4.4,7.1c-64.2,32.1-128.3,64.2-192.6,96.1
		c-101.1,50.3-202.3,100.4-303.4,150.5c-40,19.8-80,39.6-119.9,59.4c-0.1,0.1-0.2,0.1-0.3,0.2c-5,2.4-3.6,2.5-8-1
		c-6.5-5.1-12.9-10.3-19.3-15.4c-22.5-18.1-45-36.1-67.5-54.2c-38.1-30.6-76.2-61.1-114.3-91.7c-27.8-22.3-55.6-44.5-83.4-66.7
		c-43-34.5-86-68.9-129-103.4c-26.3-21-52.5-42-78.8-63c-0.5-0.4-1-0.7-1.6-1.2c0.7,2.2,46.1,61.1,73.7,96.3
		c25,31.9,49.7,63.9,74.6,95.9c24.8,31.9,49.6,63.8,74.3,95.6C1741.3,1666.3,1766.1,1698.2,1791.3,1730.7z"/>
</g>
<g>
	<path class="st0" d="M2278.9,1570.9c-4.9-0.5-9.8-0.9-14.7-1.5c-36.1-3.8-70.9-11.9-102.7-29.9c-51.8-29.3-82.7-73.3-94.2-130.8
		c-3.1-15.5-4-31.1-4.2-46.8c0-1.2,0.1-2.4,0.2-3.5c2.8-0.8,110.5-1,115.7-0.3c0.1,1.9,0.2,4,0.3,6c0.3,11.9,1.9,23.6,5.7,34.8
		c10.2,29.9,30.5,50.1,60.4,61c18.8,6.8,38.3,9.5,58.3,8.9c15.9-0.4,31.6-2,46.8-6.8c13-4.1,24.8-10.3,34.8-19.6
		c15.6-14.4,21.3-32.3,20.1-52.8c-0.3-4.2-1-8.5-1.9-12.6c-2-8.7-6.2-16.4-12.4-22.9c-10-10.6-22.1-18.3-35.3-24.3
		c-18.7-8.5-38.3-14.3-58.1-19.7c-31.6-8.6-63.1-17.4-93.9-28.5c-14.4-5.2-28.6-10.9-41.8-18.8c-7.9-4.8-15.5-10-23-15.3
		c-2.3-1.6-4.4-2.3-7.1-2.3c-34,0.1-68,0-102,0c-1.5,0-2.9,0-4.7,0c-13.7-44.6-27.4-89-41.1-133.6c-67.8,0-135.6,0-203.8,0
		c-14.1,44.3-28.3,88.8-42.6,133.4c-40.1,0-80,0-120.5,0c26.5-77.5,53-154.7,79.5-232.3c85.2,0,170.3,0,256,0
		c-14.7-47.2-29.2-93.9-43.8-140.8c38.2,0,76.1,0,114.2,0c21.9,64.8,43.9,129.6,66,194.9c0.6-1.3,1-2.1,1.2-2.9
		c12.5-34.8,34.1-62.9,64.6-84.3c22.5-15.8,47.5-25.8,74.3-31.8c24-5.5,48.3-7.2,72.9-5.9c26.4,1.5,52.4,5.6,77.4,14
		c31.4,10.5,58.7,27.3,80.4,52.3c20.7,23.9,33.7,51.3,39.2,82.2c2.4,13.5,3.7,27,3.7,40.7c0,1.2,0,2.4,0,3.6
		c-2.8,0.8-110.5,1.1-115.7,0.3c-0.3-2.9-0.6-5.9-0.9-8.9c-1.1-10.1-3.1-20-6.9-29.4c-9.1-23.1-26-38.3-49.9-45.5
		c-26.2-7.9-53-9.5-79.9-3.2c-16.4,3.9-29.9,12.5-40.2,25.8c-5.9,7.6-9.8,16-11.2,25.5c-1.6,10.3-1.5,20.6,0.8,30.8
		c2.1,9.6,7.2,17.2,15.1,23.2c5.7,4.3,11.9,7.8,18.4,10.8c15,7,30.8,12.1,46.7,16.7c26.2,7.6,52.5,14.9,78.7,22.4
		c14.8,4.2,29.9,7.9,44.4,13c43.3,14.9,77.2,41.3,100.1,80.8c8.2,14.1,13.1,29.3,15.9,45.3c1.5,8.5,2.4,17.1,2.4,25.8
		c0,1.9,0.4,3.8,0.6,5.7c0,3.2,0,6.3,0,9.5c-0.2,1.7-0.6,3.3-0.6,5c0,10.3-1.2,20.4-3.1,30.4c-4.7,24.6-13.5,47.5-27.8,68.3
		c-18.4,26.7-43,46.1-72.4,59.8c-30.9,14.5-63.7,21.3-97.7,23.4c-2.3,0.2-4.6,0.5-6.9,0.7
		C2301.7,1570.9,2290.3,1570.9,2278.9,1570.9z"/>
	<path class="st0" d="M1945.7,643.3c2.9,8.4,5.9,16.8,8.8,25.2c19.3,56.9,38.5,113.8,57.7,170.6c0.5,1.6,1,3.2,1.6,5.1
		c-38,0-75.5,0-113.2,0c-5.7-17.4-10.7-34.9-16.5-52.3c-2,0.8-2,2.3-2.4,3.4c-5.4,16.8-10.8,33.6-16.2,50.4
		c-15.1,47-30.2,93.9-45.3,140.9c-0.3,1-0.7,2-1.2,3.3c-37.9,0-75.8,0-114.1,0c0.5-1.6,0.9-3,1.3-4.4
		c25.8-75.3,51.5-150.5,77.3-225.7c13.2-38.6,26.4-77.2,39.7-115.8c0.1-0.2,0.1-0.5,0.1-0.7C1864.1,643.3,1904.9,643.3,1945.7,643.3
		z"/>
</g>
</svg>
