<?xml version="1.0" encoding="utf-8"?>
<!-- Generator: Adobe Illustrator 24.0.1, SVG Export Plug-In . SVG Version: 6.00 Build 0)  -->
<svg version="1.1" id="Capa_1" xmlns="http://www.w3.org/2000/svg" xmlns:xlink="http://www.w3.org/1999/xlink" x="0px" y="0px"
	 viewBox="0 0 3840 2160" style="enable-background:new 0 0 3840 2160;" xml:space="preserve">
<style type="text/css">
	.st0{fill:#73C8C6;}
	.st1{fill:#162839;}
</style>
<g>
	<path class="st0" d="M1935.4,1332c-3.9-2.5-7.5-4.8-11.2-7c-26.7-16-53.5-32.1-80.2-48.1c-16.4-9.8-32.8-19.5-49.2-29.3
		c-0.7-0.4-1.4-0.7-2.5-0.7c22.2,28.4,44.5,56.7,66.7,85.1c-0.1,0.2-0.2,0.3-0.3,0.5c-150-70.4-299.9-140.8-450.1-211.3
		c-0.2-4.5-0.5-9.1-0.7-13.6c-0.6-12.4-1.3-24.8-1.9-37.1c-0.3-5.3-0.4-10.6-0.7-15.9c-0.5-8.8-1.1-17.5-1.5-26.2
		c-0.4-6.8-0.6-13.6-0.9-20.4c-0.6-12.1-1.3-24.2-1.9-36.3c-0.3-4.9-0.4-9.9-0.7-14.8c-0.5-9.1-1-18.2-1.5-27.4
		c-0.4-6.9-0.6-13.8-0.9-20.7c-0.6-12.1-1.3-24.2-1.9-36.3c-0.3-4.9-0.4-9.9-0.7-14.8c-0.5-8.8-0.9-17.7-1.4-26.5
		c-0.4-7-0.7-14-1-20.9c-0.5-8.9-1-17.9-1.4-26.8c-0.4-8.8-0.8-17.5-1.2-26.3c-0.5-8.8-1.1-17.5-1.5-26.2
		c-0.4-6.8-0.6-13.6-0.9-20.4c-0.6-12.1-1.3-24.2-1.9-36.3c-0.3-4.8-0.4-9.7-0.7-14.5c-0.1-1.7,0.4-2.7,1.8-3.8
		c17.3-13.5,34.6-27.1,51.9-40.7c37.2-29.2,74.5-58.4,111.7-87.6c27.5-21.6,55-43.1,82.4-64.7c36.8-28.9,73.6-57.7,110.4-86.6
		c9.1-7.1,18.2-14.2,27.2-21.4c1.2-0.9,2.1-1.3,3.7-0.7c25.8,10,51.7,19.9,77.6,29.8c3.5,1.3,7,2.6,10.4,4.1c1.7,0.7,3,0.7,4.6-0.3
		c16-9.6,32.1-19.2,48.2-28.8c0.8-0.5,1.6-1.2,2.4-1.3c1-0.2,2.5-0.4,3.2,0.1c3.8,2.7,8,4.6,12.1,6.9c5.6,3.2,11.4,6.1,17,9.3
		c5,2.8,9.8,5.9,14.8,8.7c4.4,2.5,8.8,4.8,13.2,7.2c3.1,1.7,6.3,3.4,9.4,5.2c3,1.7,5.8,3.6,8.8,5.2c4.6,2.5,9.4,4.8,14,7.3
		c3,1.6,5.9,3.6,8.9,5.2c4,2.2,7.9,4.5,12,6.5c4.4,2.2,8.5,5.1,12.8,7.6c2.4,1.4,4.8,2.6,7.3,4c2.6,1.4,5.1,2.8,7.6,4.2
		c3.7,2.1,7.4,4.1,11.2,6.2c2.4,1.3,4.8,2.7,7.3,4c4.8,2.6,9.6,5.2,14.3,7.9c5,2.8,9.9,5.6,14.8,8.5c5.1,2.9,10.2,5.9,15.3,8.7
		c4.9,2.7,9.9,5.3,14.7,8.2c4,2.3,8.1,4.5,12.1,6.9c4.5,2.7,9.6,4.6,14,7.5c5.6,3.6,11.6,6.4,17.2,9.9c4.5,2.8,9.3,5,13.9,7.6
		c4.3,2.4,8.5,5,12.8,7.4c2.5,1.4,5,2.7,7.5,4.1c2.3,1.2,4.7,2.4,7,3.7c3,1.7,5.9,3.6,9,5.3c3.4,1.9,6.8,3.7,10.2,5.6
		c4.4,2.5,8.6,5.3,13.2,7.4c4.9,2.3,9.4,5.3,14.2,7.7c4.3,2.1,8.2,5.2,12.5,7.3c5.5,2.6,10.6,6.1,16.1,8.8c4.4,2.1,8.5,4.9,12.8,7.3
		c2.7,1.5,5.5,2.9,8.3,4.4c2.2,1.2,4.4,2.6,6.7,3.9c4,2.2,7.9,4.4,11.9,6.6c2.3,1.2,3.6,2.7,3.6,5.6c0.2,19.3,0.6,38.6,0.9,57.9
		c0.1,8.9,0.3,17.7,0.5,26.6c0.4,22.2,0.8,44.4,1.2,66.6c0.2,9,0.3,18.1,0.5,27.1c0.4,22.4,0.8,44.8,1.2,67.2
		c0.2,8.7,0.3,17.4,0.5,26c0.4,22.5,0.8,45,1.2,67.4c0.2,8.9,0.3,17.7,0.4,26.6c0.4,22.6,0.8,45.2,1.2,67.7
		c0.2,8.4,0.3,16.8,0.4,25.2c0.2,10.7,0.5,21.4,0.8,32.2c0.1,1.9-0.5,3-2.2,4c-25.2,14.8-50.3,29.7-75.5,44.6
		c-41.3,24.3-82.6,48.6-123.9,73c-42.2,24.9-84.5,49.9-126.7,74.8c-27.7,16.3-55.3,32.6-83,48.9
		C1936.6,1331.4,1935.9,1331.7,1935.4,1332z"/>
</g>
<g>
	<path class="st1" d="M1783.9,1270.9c-3.2-1.5-288.9-218.2-292.9-222c0.3-5.2,0.5-10.5,0.8-15.8c0.3-5.5,0.6-11,0.9-16.5
		c0.2-4.1,0.4-8.1,0.6-12.2c0.4-6.9,0.9-13.7,1.2-20.5c0.3-4.7,0.4-9.4,0.7-14.1c0.3-5.7,0.6-11.3,0.9-17c0.2-3.9,0.3-7.8,0.6-11.7
		c0.4-6.9,0.9-13.9,1.2-20.8c0.3-4.6,0.4-9.3,0.7-13.9c0.3-5.7,0.6-11.3,0.9-17c0.2-3.9,0.3-7.8,0.6-11.7c0.4-6.9,0.8-13.9,1.2-20.8
		c0.3-4.6,0.4-9.3,0.7-13.9c0.3-5.7,0.6-11.3,0.9-17c0.2-4,0.3-8,0.6-12c0.4-6.9,0.8-13.7,1.2-20.5c0.3-4.7,0.4-9.4,0.7-14.1
		c0.3-5.6,0.6-11.2,0.9-16.7c0.2-4,0.3-8,0.6-12c0.4-6.9,0.8-13.7,1.2-20.5c0.3-4.7,0.4-9.4,0.7-14.1c0.3-5.6,0.6-11.2,0.9-16.7
		c0.2-4,0.4-8,0.6-12c0.4-6.9,0.9-13.7,1.2-20.5c0.3-5,0.5-10.1,0.7-15.1c0-0.4,0.1-0.8,0.1-1.4c135.3-81.7,270.7-163.3,406.2-245.1
		c5.7,3.2,11.3,6.4,16.9,9.6c25.4,14.4,50.8,28.8,76.2,43.2c31.1,17.7,62.3,35.4,93.4,53c29.1,16.5,58.1,33,87.2,49.5
		c28.6,16.2,57.2,32.5,85.7,48.7c12.1,6.9,24.3,13.8,36.4,20.6c1.6,0.9,2,1.9,2,3.6c0,32.5,0,65,0,97.5c0,114,0,228.1,0,342.1
		c0,3.8,0.7,2.9-2.8,4.7c-41.4,21.1-82.8,42.2-124.2,63.2c-65.2,33-130.5,66-195.7,99c-25.8,13-51.6,26-77.4,39.1
		c-0.1,0-0.1,0.1-0.2,0.1c-3.3,1.6-2.3,1.6-5.1-0.6c-4.2-3.3-8.3-6.7-12.4-10.1c-14.5-11.9-29-23.8-43.5-35.6
		c-24.6-20.1-49.1-40.2-73.7-60.3c-17.9-14.6-35.8-29.3-53.8-43.9c-27.7-22.7-55.5-45.3-83.2-68c-16.9-13.8-33.9-27.6-50.8-41.4
		c-0.3-0.2-0.6-0.5-1.1-0.8c0.4,1.4,29.7,40.2,47.5,63.3c16.1,20.9,32.1,42,48.1,63.1c16,21,32,41.9,47.9,62.9
		C1751.7,1228.5,1767.6,1249.5,1783.9,1270.9z"/>
</g>
<g>
	<path class="st0" d="M2236.2,624.7c-116.4,138-232.8,276-349.4,414.3c-0.7-0.6-1.4-1.1-2-1.7c-29-25.9-58-51.7-87-77.6
		c-9.2-8.2-72.2-64.8-199-177.4c-22.3-19.8-53.1-47.2-90.2-80c-7.4-27.5-10.2-37.3-10.8-38.5c-0.1-0.2-0.5-0.9-0.5-2
		c0-0.7,0.1-1.4,0.4-2.2c3.5-9.5,8.3-18.4,12.5-27.6c2.9-6.4,6-12.6,8.9-18.9c1.6-3.5,4.2-5.1,7.9-5.3c8.1-0.5,16.1-1.2,24.2-1.8
		c3.5-0.3,7-0.5,10.5-0.8c2.1-0.2,3.6,0.8,5,2.3c5.6,6.3,11.2,12.5,16.8,18.8c24.1,26.8,48.1,53.5,72.2,80.3
		c24.8,27.6,49.6,55.1,74.3,82.7c23.9,26.5,47.7,53.1,71.6,79.6c20.3,22.5,40.5,45.1,60.8,67.6c0.4,0.4,0.7,0.9,1.1,1.4
		C1987.7,833.3,2111.9,729,2236.2,624.7z"/>
	<path class="st0" d="M1643.7,540.6c83.5,70.5,167.1,141.1,250.7,211.8c0.5-0.5,1-0.9,1.4-1.4c33.8-37.3,67.5-74.7,101.3-112
		c32.4-35.9,64.9-71.8,97.3-107.7c8.5-9.4,16.9-18.7,25.4-28.1c0.7-0.8,1.4-1.6,2-2.5c0.6-1.1,1.3-1,2.2-0.7
		c0.3,0.1,0.6,0.3,0.8,0.5c26,15.6,51.9,31.3,77.9,46.9c0.4,0.2,0.8,0.5,1.5,1c-111.4,97.1-222.6,194.1-334.1,291.3
		c-0.6-0.6-1.1-1.2-1.6-1.8c-12.9-15.2-25.7-30.4-38.6-45.5c-28-33-56-66-84-99.1c-35.1-41.3-70.1-82.7-105.2-124
		c-0.9-1.1-1.4-2.1-1.2-3.7c1-7.2,1.8-14.4,2.6-21.6C1642.3,542.6,1642.5,541.4,1643.7,540.6z"/>
</g>
<g>
	<path class="st0" d="M569.8,1383.8c4.8-0.6,41.7-0.6,45.7,0c0.2,0.5,0.6,1,0.8,1.6c28.2,93.2,56.3,186.3,84.4,279.5
		c0.2,0.6,0.2,1.2,0.3,1.8c-4.2,0.6-34.5,0.6-38.7,0c-3.4-12.2-6.9-24.4-10.3-36.7c-3.4-12.1-6.7-24.3-10.2-36.2
		c-4.2-0.6-93.1-0.7-97.8-0.1c-1.3,1.1-1.3,2.8-1.8,4.3c-5.5,20-11,40.1-16.5,60.1c-0.8,2.9-1.6,5.8-2.5,8.9
		c-3.3,0.5-6.5,0.2-9.7,0.3c-3.2,0.1-6.4,0-9.6,0s-6.4,0.1-9.6,0s-6.4,0.3-9.6-0.3c0.1-0.7,0-1.4,0.2-2
		C513.2,1571.1,541.4,1477.5,569.8,1383.8z M592.3,1418.6c-13,47.1-25.8,93.8-38.6,140.5c-0.2,0.9-0.3,1.9-0.5,3.1
		c1.6,0.1,3,0.2,4.4,0.2c5.9,0,11.8,0,17.8,0c17.3,0,34.6,0,51.8,0c1.7,0,3.5,0.4,5.1-0.6c0-0.6,0.1-1.1,0-1.5
		c-12.9-46.8-25.8-93.7-38.8-140.5C593.4,1419.7,593,1419.5,592.3,1418.6z"/>
	<path class="st0" d="M2118.7,1655.4c-0.5-4.9-0.4-35.7,0.1-39.8c1,0.5,2.1,0.8,2.9,1.4c7.4,4.5,14.9,8.7,22.7,12.4
		c12.7,5.9,26,10.1,39.9,11.5c14.1,1.5,28.1,1.2,41.7-3.4c5.2-1.8,10-4.2,14.5-7.4c9.2-6.7,14.8-15.8,16.9-26.9
		c1.6-8.6,1.3-17.2-0.6-25.7c-2.5-10.9-8.6-19.1-18.3-24.7c-6.8-3.9-14.2-6.7-21.8-8.6c-9.4-2.4-19-4.6-28.4-6.8
		c-11.7-2.8-23.2-6.1-34-11.6c-4.6-2.3-9-4.9-13.2-7.8c-12.8-8.9-20.9-21-24.3-36.2c-3.9-17.4-3-34.7,3.2-51.5
		c7.2-19.4,20.8-33.1,39.1-42.2c10.3-5.1,21.3-7.8,32.6-9.1c21.3-2.4,42.1,0.6,62.6,6.2c6.6,1.8,13.1,4.1,19.6,6.3
		c1.3,0.4,2.6,1.1,3.8,1.5c0.6,3.8,0.7,32.5,0.2,37.6c-1.3,0.8-2.1-0.3-3-0.8c-8.2-5-16.7-9.4-25.7-12.8c-16.2-6.3-33-8.8-50.4-7.2
		c-9.5,0.8-18.6,3.2-26.8,8.2c-13.7,8.3-20.8,20.3-21.3,36.3c-0.2,5.6,0.3,11.2,1.9,16.6c2.3,7.7,6.7,13.7,13.5,18.1
		c4.7,3.1,9.8,5.3,15.1,7.3c9.3,3.4,19,5.5,28.7,7.7c10.5,2.4,20.9,4.8,30.9,8.7c6.6,2.5,12.9,5.5,19,9.1
		c18.9,11.4,29.8,28,33.2,49.7c2.4,15.2,2.1,30.3-1.9,45.2c-5.5,20.9-18.3,35.9-37.7,45.3c-9.4,4.6-19.4,7.3-29.8,8.8
		c-31.7,4.7-62.5,0.6-92.5-10.2c-3.5-1.2-6.9-2.6-10.3-4C2120.3,1656.3,2119.5,1655.8,2118.7,1655.4z"/>
	<path class="st0" d="M2453.9,1532.2c0.1-0.7,0.4-1.5,0.4-2.3c0.1-7.5-0.5-15-2.6-22.3c-3.6-12.6-11.5-21.1-24-25.3
		c-6.4-2.1-13-3.2-19.8-3.5c-18-1-35.4,2-52.2,8.2c-7.1,2.6-13.9,5.7-20.6,9.2c-1.2,0.7-2.5,1.2-3.6,1.7c-0.4-0.3-0.6-0.3-0.7-0.4
		c-0.1-0.1-0.1-0.3-0.1-0.5c0-10.4-0.1-20.8-0.1-31.2c0-0.6,0.2-1.2,0.3-2c6.5-2.8,13.2-4.9,19.9-6.9c12.8-3.8,25.8-6.5,39-7.4
		c16.2-1.1,32.3-0.3,48,4.5c12.5,3.8,23.4,10.2,32.4,19.7c8.4,8.9,13.5,19.3,15.8,31.2c1.9,9.8,2.2,19.7,2.6,29.6
		c0.2,3.8,0.1,7.7,0.1,11.5c0,38.2,0,76.5,0,114.7c0,1.9,0.2,3.8-0.2,5.5c-0.5,0.3-0.8,0.6-1.1,0.6c-10.1,0.1-20.1,0.1-30.2,0.2
		c-0.8,0-1.5-0.1-2.6-0.3c-0.1-1.4-0.3-2.6-0.3-3.9c0-7.2,0-14.4,0-21.6c0-1.2-0.1-2.5-0.2-4.3c-0.9,0.7-1.4,1-1.7,1.5
		c-1,1.4-2,2.9-3,4.3c-10.1,14.1-23.5,23.4-40.4,27.2c-15.5,3.5-31.1,3.7-46.6-0.2c-23.8-6.1-42.7-24.8-46.3-51.8
		c-1.8-13-1.2-25.8,2.8-38.4c4.1-13,11.9-23.2,23.1-30.9c8.8-6.1,18.7-9.8,29-12.2c11.7-2.7,23.7-3.8,35.7-3.8c13.9,0,27.8,0,41.8,0
		C2450.3,1532.7,2452,1533.1,2453.9,1532.2z M2454,1560.9c-1.4-1.1-2.9-0.8-4.3-0.8c-13.6,0-27.2,0-40.8,0c-7.9,0-15.7,0.6-23.4,2.3
		c-6.9,1.5-13.5,3.8-19.5,7.7c-8.3,5.5-13.4,13.1-15.4,22.8c-1.1,5.4-1.2,10.8-0.7,16.2c2.3,20.6,15.6,29.9,29.4,33
		c7.3,1.6,14.6,1.7,22,0.9c12.7-1.4,23.7-6.3,32.7-15.5c7.6-7.7,12.6-16.9,15.7-27.1c3.8-12.4,4.8-25.1,4.6-37.9
		C2454.3,1561.9,2454.1,1561.3,2454,1560.9z"/>
	<path class="st0" d="M3102.8,1569c-25.3,0-50.1,0-74.9,0c-24.6,0-49.2,0-73.7,0c-0.3,0.9-0.6,1.3-0.6,1.8c-0.2,11,1.2,21.7,5,32.1
		c7.6,20.7,22.3,33.5,43.8,38.3c14.3,3.2,28.6,2.5,42.9-0.4c15.6-3.2,30.3-9.2,44.5-16.2c1.4-0.7,2.8-1.3,4.4-2.1
		c0.3,0.6,0.7,0.9,0.7,1.3c0,10.7,0,21.4,0,32.4c-1.3,0.6-2.5,1.3-3.8,1.8c-16.1,6.4-32.7,11.2-49.9,13.4
		c-16.8,2.1-33.5,1.9-50.1-2.2c-32-7.8-53.5-27.5-65.3-58c-4.5-11.6-6.7-23.7-7.7-36c-0.8-9.8-0.8-19.5,0.1-29.2
		c1.6-18.4,6-36,15.7-51.9c12-19.8,28.6-33.9,51-40.5c18-5.4,36.2-6.1,54.5-1.9c18.4,4.2,33,14.3,44.1,29.5c8,10.9,13,23.1,16,36.2
		c2.5,10.8,3.5,21.8,3.6,32.8c0.1,4.8,0,9.6,0,14.4C3103.1,1565.9,3102.9,1567.1,3102.8,1569z M3068.5,1541c0-0.9,0.1-1.8,0.1-2.7
		c-0.2-2.6-0.3-5.1-0.6-7.6c-1-8.6-2.9-17-6.7-24.9c-6.6-13.7-17.2-22.4-32.1-25.7c-6.6-1.5-13.3-1.7-20-1.1
		c-13,1.1-24.4,6-33.8,15.2c-5.6,5.4-9.9,11.7-13.1,18.8c-3.5,7.8-5.7,15.9-6.8,24.4c-0.2,1.4-0.2,2.8-0.3,4
		c1.6,1.2,3.1,0.9,4.5,0.9c6.6,0,13.1-0.1,19.7-0.1c28.1-0.1,56.3-0.2,84.4-0.2c1.1,0,2.2,0,3.4-0.1
		C3067.4,1541.6,3067.8,1541.3,3068.5,1541z"/>
	<path class="st0" d="M1891.5,1560.5c-0.3,16.3-1.4,31.7-5.4,46.8c-2.3,8.7-5.4,17.1-9.8,24.9c-11.2,19.9-27.8,32.7-50.1,37.7
		c-17,3.8-34,3.8-50.9-0.3c-23.8-5.8-40.5-20.3-51.1-42.2c-4.8-9.8-7.8-20.3-9.7-31c-3.4-19.5-3.8-39.1-1.8-58.8
		c1.3-12.4,3.8-24.6,8.5-36.3c3.7-9.3,8.5-17.9,15.1-25.5c10.2-11.9,23-19.7,38.2-23.5c16.9-4.3,33.9-4.4,50.9-0.7
		c24.6,5.4,42.1,19.9,53.2,42.3c5.2,10.5,8.3,21.8,10.3,33.3C1890.8,1538.5,1891.2,1549.9,1891.5,1560.5z M1854.9,1559.2
		c-0.1-2.4-0.1-6.6-0.3-10.7c-0.4-9.1-1.6-18.1-3.9-27c-2.4-9.2-5.9-17.9-11.7-25.5c-6.4-8.3-14.7-13.6-24.9-16
		c-6.5-1.5-13-1.7-19.6-1c-14.4,1.7-25.5,8.7-33.3,21c-2.7,4.3-4.9,9-6.6,13.8c-3.2,9.3-4.9,18.8-5.8,28.6
		c-1.1,12-1.1,23.9-0.1,35.9c0.7,8.1,1.9,16.2,4.1,24.1c2.3,8.1,5.5,15.7,10.5,22.5c6.3,8.6,14.5,14.3,24.9,16.8
		c8.9,2.1,17.7,2.1,26.6-0.1c11.1-2.7,19.6-9,26-18.4c4.8-7.1,7.8-15,9.9-23.2C1854,1587.1,1854.9,1574.1,1854.9,1559.2z"/>
	<path class="st0" d="M1287,1558.5c0,17.3-1.2,32.2-4.8,46.9c-2.6,10.8-6.6,21.1-12.5,30.5c-11.1,17.9-27,29.2-47.4,33.9
		c-16.8,3.9-33.6,3.9-50.4,0c-21-4.9-37.1-16.7-48.2-35.2c-6.7-11.1-10.6-23.2-13.2-35.8c-3-15.1-3.5-30.5-3.2-45.8
		c0.3-13,1.8-25.8,5.1-38.4c2.1-7.9,4.8-15.6,8.7-22.8c11.9-22.5,30.3-36.3,55.4-40.8c15.1-2.7,30.2-2.6,45.2,0.9
		c23.1,5.3,39.9,18.8,51,39.5c5.8,10.8,9.2,22.4,11.4,34.5C1286.2,1537.4,1287.1,1549,1287,1558.5z M1143.8,1560.6
		c-0.1,8.3,0.2,16.1,1.2,23.9c1.1,8.4,2.8,16.7,5.7,24.7c2.5,6.6,5.7,12.8,10.3,18.3c4.8,5.7,10.7,10.1,17.8,12.6
		c11.7,4.1,23.5,4.2,35.3,0.4c10-3.2,17.5-9.8,23.1-18.5c4.7-7.4,7.6-15.5,9.6-23.9c2.8-12.1,3.8-24.3,3.8-36.7
		c0-12.7-0.9-25.2-3.8-37.6c-2-8.5-4.9-16.6-9.5-23.9c-6.5-10.2-15.4-16.9-27.2-19.8c-5.3-1.3-10.7-1.6-16.2-1.3
		c-16,0.7-28.5,7.7-37.1,21.2c-1.5,2.4-2.9,5-4.1,7.6c-2.7,5.8-4.5,11.9-5.9,18.2C1144.4,1537.4,1143.6,1549.2,1143.8,1560.6z"/>
	<path class="st0" d="M1353.9,1666.6c-4.3,0.7-29.1,0.7-33.8,0.1c-0.1-0.8-0.4-1.7-0.4-2.6c-0.1-1.3,0-2.6,0-3.8
		c0-66.4,0-132.8,0-199.1c0-2.1-0.2-4.1,0.3-6.3c3.7-1,7.4-0.4,11-0.5c3.8-0.1,7.7-0.1,11.5,0c3.6,0,7.3-0.2,11.2,0.3
		c0.1,1.5,0.4,2.7,0.4,4c0,7.2,0,14.4,0,21.6c0,1.2,0.2,2.4,0.3,3.7c1.5,0,1.7-1.1,2.2-1.8c2.7-4.6,5.8-8.8,9.4-12.7
		c9.5-10.1,21.3-16.2,34.9-18.7c11.1-2,22.3-2,33.3,0.6c15.4,3.6,26.8,12.3,34.4,26.1c4.2,7.6,6.8,15.8,8.5,24.3
		c2,9.7,3,19.6,3,29.5c0,43.7,0,87.3,0,131c0,1.4-0.1,2.8-0.2,4.4c-0.7,0.2-1.3,0.5-1.9,0.5c-10.2,0-20.5,0-30.7,0
		c-0.3,0-0.6-0.1-1.2-0.3c-0.2-0.8-0.4-1.7-0.5-2.6c-0.1-1.4,0-2.9,0-4.3c0-41.9,0-83.8,0-125.7c0-8.3-0.7-16.6-2.8-24.7
		c-1-3.8-2.4-7.7-4.1-11.2c-4.5-9.2-11.9-14.9-21.8-17.3c-9.7-2.3-19.4-2-28.9,1c-9.9,3.1-17.4,9.3-22.9,18
		c-4.6,7.1-7.2,14.9-8.9,23.1c-1.7,8.5-2.1,17.1-2.1,25.8c0,37.3,0,74.5,0,111.8C1354,1662.5,1353.9,1664.4,1353.9,1666.6z"/>
	<path class="st0" d="M1666.7,1461.9c0.6,6.3,0.4,29.3-0.2,33c-1.5,0.1-2.6-0.9-3.8-1.5c-8.6-4.7-17.6-8.5-27-11.1
		c-15.7-4.3-31.5-5.2-47.5-2.4c-3.1,0.5-6.2,1.5-9.2,2.5c-14.1,5.1-20,16.1-18.9,30.8c0.1,1.3,0.4,2.5,0.6,3.8
		c1.5,7.7,5.6,13.4,12.8,16.9c6.1,2.9,12.5,5,19,6.5c10.6,2.4,21.2,4.6,31.9,6.7c7.7,1.5,15.3,3.6,22.4,7
		c13.6,6.6,23.4,16.7,28,31.2c2.8,8.8,3.5,17.9,2.7,27c-0.5,5.1-1.3,10.1-2.9,15.1c-3.6,11.5-10.3,20.8-19.8,28.2
		c-9.5,7.4-20.4,11.8-32.2,14.3c-13.9,2.9-27.9,3.4-42,2.2c-18.4-1.6-36.2-6.3-53.7-11.9c-0.5-0.1-0.9-0.3-1.3-0.6
		c-0.3-0.1-0.5-0.4-0.9-0.7c0-11.4,0-22.9,0-34.3c1.5-0.8,2.5,0.3,3.6,0.8c10,5,20.4,9.3,31.1,12.5c14.4,4.4,29,6.5,44,5.3
		c5.9-0.5,11.8-1.5,17.3-3.8c3.1-1.3,6.1-2.8,8.9-4.7c10.9-7.7,14.7-18.5,13-31.5c-0.6-4.6-3-8.4-6.1-11.7
		c-3.7-3.9-8.1-6.7-12.9-9.1c-7.2-3.5-14.9-5.8-22.7-7.6c-8.9-2-17.8-3.7-26.7-5.8c-8.1-1.9-15.9-4.8-23.2-8.9
		c-8.9-5-15.9-11.7-20.4-21c-2.6-5.5-4.2-11.4-4.8-17.5c-0.9-9.3-0.6-18.5,1.8-27.6c4-15,13-26.2,26.4-33.8c8-4.6,16.7-7.4,25.7-8.9
		c28.8-4.7,56.7-1.4,83.9,9.1C1664.6,1460.8,1665.7,1461.4,1666.7,1461.9z"/>
	<path class="st0" d="M3278.4,1461.9c0,10.8,0,21.2,0,31.6c0,0.4-0.3,0.8-0.5,1.6c-1.5-0.7-2.9-1.4-4.3-2.1
		c-9.5-5.1-19.4-9.1-29.9-11.6c-14.5-3.5-29.1-4-43.8-1.6c-4.4,0.7-8.7,2-12.8,4c-8.6,4.1-13.7,10.8-15.2,20.2
		c-0.8,5.3-0.6,10.5,0.9,15.7c1.9,6.5,5.9,11.2,12,14.2c6.1,2.9,12.5,5,19,6.5c10.8,2.4,21.6,4.6,32.4,6.8c7.6,1.5,15,3.5,21.9,6.9
		c18.6,9,28.7,23.8,30.7,44.3c0.9,9.3,0.3,18.6-2.3,27.6c-3.4,11.9-10.1,21.7-19.8,29.3c-9.6,7.6-20.6,12.1-32.5,14.6
		c-13.9,2.9-27.9,3.5-42,2.2c-18.4-1.6-36.2-6.2-53.7-11.9c-0.7-0.2-1.4-0.7-2.1-1c-0.5-3.6-0.7-25.4-0.4-33.2
		c0-0.6,0.2-1.2,0.4-2.1c1.7,0.8,3.1,1.3,4.5,2c11.8,5.8,24,10.6,36.7,13.8c12.4,3.1,24.9,4.4,37.6,3.3c5.9-0.5,11.7-1.7,17.2-3.9
		c3.7-1.5,7.2-3.4,10.3-6c9.3-7.7,12.5-17.9,11.1-29.6c-0.6-4.7-3-8.7-6.2-12.2c-4-4.3-8.9-7.3-14.2-9.7c-6.9-3.2-14.1-5.3-21.4-6.9
		c-8.9-2-17.8-3.8-26.7-5.8c-7.3-1.7-14.4-4.3-21.1-7.8c-5.4-2.8-10.4-6.3-14.6-10.7c-7.2-7.6-11-16.8-12.4-27
		c-1.2-9.1-1-18.2,1-27.2c3.6-15.7,12.4-27.5,26.2-35.7c8.4-4.9,17.5-7.9,27-9.5c28.5-4.6,56.1-1.3,82.9,9
		C3275.8,1460.6,3276.9,1461.2,3278.4,1461.9z"/>
	<path class="st0" d="M972.7,1481.6c-2.4-0.1-4.1-0.1-5.8-0.1c-14.9,0-29.8,0-44.6,0c-1.7,0-3.5,0.3-5.1-0.5
		c-0.6-3.7-0.7-20.9-0.2-26c1.5-1.2,3.4-0.7,5.1-0.7c15,0,30.1,0,45.1,0c1.7,0,3.5,0.4,5.2-0.5c0.9-1.7,0.5-3.5,0.6-5.2
		c0.1-6.6,0.1-13.1,0.4-19.7c0.3-7.1,1.6-14,3.8-20.7c1.1-3.2,2.4-6.3,3.9-9.3c4.7-9.3,11.9-16.1,21.3-20.6
		c6.1-2.9,12.6-4.7,19.3-5.6c5.1-0.7,10.2-1.1,15.3-1.1c12.6-0.2,25.3-0.1,37.9,0c1.4,0,2.8,0.2,4.5,0.2c0.5,3.2,0.2,6.2,0.3,9.2
		c0.1,3.2,0,6.4,0,9.6c0,3-0.1,6-0.1,8.9c-1.7,1.3-3.3,0.9-4.8,0.9c-11.2,0-22.4,0-33.6,0c-5,0-9.9,0.4-14.7,1.6
		c-1.8,0.5-3.7,1.1-5.4,1.9c-4.6,1.9-7.9,5.3-10,9.9c-1.8,4-3,8.2-3.1,12.5c-0.3,8.8-0.2,17.6-0.3,26.4c0,0.3,0.2,0.6,0.3,1
		c1.5,1.1,3.3,0.6,5,0.6c20.3,0,40.6,0,61,0c1.7,0,3.5,0.1,5.4,0.2c0.7,3.1,0.3,6,0.4,8.8c0.1,3,0,6.1,0,9.1c0,2.8,0.2,5.7-0.2,8.5
		c-1.9,0.9-3.7,0.6-5.4,0.6c-20,0-40,0-60,0c-1.9,0-3.8,0-5.9,0c-0.3,1.2-0.6,2-0.6,2.9c-0.1,1.8,0,3.5,0,5.3c0,57,0,113.9,0,170.9
		c0,2,0.4,4.2-0.6,6.1c-3.8,0.6-28.7,0.6-33.3,0c-0.1-0.8-0.4-1.7-0.4-2.6c-0.1-1.8,0-3.5,0-5.3c0-56.8,0-113.6,0-170.4
		C972.9,1486.3,972.8,1484.3,972.7,1481.6z"/>
	<path class="st0" d="M2891.9,1465.7c0,11.7,0,23.4,0,34.9c-1.1,0.6-1.6-0.3-2.2-0.7c-4.5-3.3-8.9-6.8-13.6-9.9
		c-11.3-7.2-23.9-10.6-37.2-11.3c-7.7-0.4-15.3,0-22.9,1.6c-18.2,4-31.4,14.5-40,30.9c-4.6,8.9-7.2,18.4-8.7,28.3
		c-1.7,11.8-1.8,23.6-0.8,35.4c0.9,11.5,3.4,22.8,8.5,33.3c7.2,14.9,18.2,25.7,34.1,31.2c5.5,1.9,11.1,3,16.9,3.4
		c10.9,0.8,21.7,0,32.3-2.9c10.8-3,20.4-8.3,29-15.5c1.3-1.1,2.6-2.2,3.8-3.2c0.5,0.3,0.6,0.3,0.7,0.4c0.1,0.1,0.1,0.3,0.1,0.4
		c0,11.2,0,22.4,0,33.8c-0.8,0.6-1.6,1.3-2.5,1.9c-21.3,11.9-44.1,16.6-68.4,14.3c-8.3-0.8-16.5-2.1-24.5-4.6
		c-25.9-8.1-44.4-24.8-55.8-49.3c-5.3-11.4-8.2-23.5-9.8-35.9c-1.5-11.5-1.5-23-0.8-34.5c0.9-14.5,3.6-28.6,9.5-41.9
		c12.7-29,34.4-47.2,65.4-53.9c20.5-4.5,41-4.2,61.2,2c8.1,2.5,15.9,5.9,23.3,10C2890.4,1464.5,2891.1,1465.1,2891.9,1465.7z"/>
	<path class="st0" d="M2685.1,1637.8c0.8,3.8,0.9,22.7,0.3,28.7c-0.8,0.2-1.7,0.5-2.6,0.5c-15,0-30.1,0-45.1-0.1
		c-6.6,0-13-1.3-19.3-3.4c-14.9-5.1-25.4-15-32.4-29c-4-8.1-6.3-16.7-7.6-25.6c-0.9-6.4-1.2-12.7-1.2-19.1c0-62.2,0-124.5,0-186.7
		c0-2,0.3-4.1-0.4-6.2c-1.8-0.8-3.6-0.5-5.3-0.5c-14.6,0-29.1,0-43.7,0c-1.7,0-3.5,0-5.3,0c-0.3-0.8-0.6-1.4-0.6-2
		c0-7.7,0-15.4,0-23c0-0.4,0.2-0.9,0.4-1.7c1.4-0.1,2.7-0.3,4.1-0.3c9.3,0,18.6,0,27.8,0c17.1,0,34.2,0,51.4,0
		c1.7,0,3.5,0.1,5.4,0.1c0.2,1.1,0.5,2,0.6,2.9c0.1,1.6,0,3.2,0,4.8c0,70.9,0,141.8,0,212.6c0,7.2,0.4,14.4,2.2,21.4
		c1.1,4.2,2.5,8.3,4.7,12c5.2,8.8,13,13.4,23.1,14.3c1.9,0.2,3.8,0.1,5.8,0.1c11,0,22.1,0,33.1,0
		C2682,1637.6,2683.6,1637.7,2685.1,1637.8z"/>
	<path class="st0" d="M764,1396.7c-6.7-0.6-12.8-0.2-18.8-0.3c-5.9-0.1-11.8,0-17.8,0c-6.1,0-12.1,0.1-18.2-0.1
		c-0.2-0.9-0.5-1.5-0.5-2.1c0-7.5,0-15,0-22.5c0-0.6,0.3-1.2,0.4-1.8c0.6-0.2,1-0.4,1.5-0.4c28.5,0,56.9,0,85.4,0
		c0.6,0,1.2,0.2,2.1,0.4c0.1,1,0.3,1.9,0.3,2.8c0.1,1.6,0,3.2,0,4.8c0,70.5,0,141.1,0,211.6c0,6.9,0.5,13.7,1.9,20.5
		c1,4.6,2.4,8.9,4.7,13c5.2,9.2,13.1,14.2,23.6,15c1.9,0.1,3.8,0.1,5.8,0.1c10.9,0,21.7,0,32.6,0c1.6,0,3.2,0.1,4.9,0.2
		c0.2,0.7,0.5,1.3,0.5,1.9c0,8.5,0,17,0,25.4c0,0.5-0.2,0.9-0.4,1.6c-0.9,0.1-1.8,0.3-2.7,0.4c-14.6,0-29.1,0-43.7,0
		c-6.9,0-13.7-1.2-20.3-3.4c-14.4-4.8-24.7-14.3-31.8-27.6c-3.9-7.4-6.3-15.3-7.8-23.6c-1.3-7.6-1.9-15.2-1.9-22.9
		c0-62.1,0-124.1,0-186.2C764,1401.3,764,1399.3,764,1396.7z"/>
</g>
</svg>
